<?xml version="1.0" encoding="UTF-8" standalone="no"?><svg xmlns="http://www.w3.org/2000/svg" xmlns:xlink="http://www.w3.org/1999/xlink" contentScriptType="application/ecmascript" contentStyleType="text/css" height="375px" preserveAspectRatio="none" style="width:2198px;height:375px;" version="1.1" viewBox="0 0 2198 375" width="2198px" zoomAndPan="magnify"><defs><filter height="300%" id="f7ickve89qc9f" width="300%" x="-1" y="-1"><feGaussianBlur result="blurOut" stdDeviation="2.0"/><feColorMatrix in="blurOut" result="blurOut2" type="matrix" values="0 0 0 0 0 0 0 0 0 0 0 0 0 0 0 0 0 0 .4 0"/><feOffset dx="4.0" dy="4.0" in="blurOut2" result="blurOut3"/><feBlend in="SourceGraphic" in2="blurOut3" mode="normal"/></filter></defs><g><text fill="#000000" font-family="sans-serif" font-size="18" lengthAdjust="spacingAndGlyphs" textLength="363" x="921" y="16.708">Klassendiagramm der Transferobjekte</text><!--MD5=[30e0629f4f86aaaff68ac7a54dba5196]
class OwnerTaskDto--><rect fill="#FEFECE" filter="url(#f7ickve89qc9f)" height="60.8047" id="OwnerTaskDto" style="stroke: #A80036; stroke-width: 1.5;" width="419" x="929" y="278.4531"/><ellipse cx="1088.75" cy="294.4531" fill="#ADD1B2" rx="11" ry="11" style="stroke: #A80036; stroke-width: 1.0;"/><path d="M1091.0938,290.125 C1090.1563,289.6875 1089.5625,289.5469 1088.6875,289.5469 C1086.0625,289.5469 1084.0625,291.625 1084.0625,294.3438 L1084.0625,295.4688 C1084.0625,298.0469 1086.1719,299.9375 1089.0625,299.9375 C1090.2813,299.9375 1091.4375,299.6406 1092.1875,299.0938 C1092.7656,298.6875 1093.0938,298.2344 1093.0938,297.8438 C1093.0938,297.3906 1092.7031,297 1092.2344,297 C1092.0156,297 1091.8125,297.0781 1091.625,297.2656 C1091.1719,297.75 1091.1719,297.75 1090.9844,297.8438 C1090.5625,298.1094 1089.875,298.2344 1089.1094,298.2344 C1087.0625,298.2344 1085.7656,297.1406 1085.7656,295.4375 L1085.7656,294.3438 C1085.7656,292.5625 1087.0156,291.25 1088.75,291.25 C1089.3281,291.25 1089.9375,291.4063 1090.4063,291.6563 C1090.8906,291.9375 1091.0625,292.1563 1091.1563,292.5625 C1091.2188,292.9688 1091.25,293.0938 1091.3906,293.2188 C1091.5313,293.3594 1091.7656,293.4688 1091.9844,293.4688 C1092.25,293.4688 1092.5156,293.3281 1092.6875,293.1094 C1092.7969,292.9531 1092.8281,292.7656 1092.8281,292.3438 L1092.8281,290.9219 C1092.8281,290.4844 1092.8125,290.3594 1092.7188,290.2031 C1092.5625,289.9375 1092.2813,289.7969 1091.9844,289.7969 C1091.6875,289.7969 1091.4844,289.8906 1091.2656,290.2031 L1091.0938,290.125 Z "/><text fill="#000000" font-family="sans-serif" font-size="12" lengthAdjust="spacingAndGlyphs" textLength="91" x="1109.25" y="298.6074">OwnerTaskDto</text><line style="stroke: #A80036; stroke-width: 1.5;" x1="930" x2="1347" y1="310.4531" y2="310.4531"/><line style="stroke: #A80036; stroke-width: 1.5;" x1="930" x2="1347" y1="318.4531" y2="318.4531"/><ellipse cx="940" cy="329.4531" fill="#84BE84" rx="3" ry="3" style="stroke: #038048; stroke-width: 1.0;"/><text fill="#000000" font-family="sans-serif" font-size="11" lengthAdjust="spacingAndGlyphs" textLength="393" x="949" y="332.6636">OwnerTaskDto(id : Long, title : String, topicDto : SubscriberTopicDto)</text><!--MD5=[fa26dc4b04f7a33efddd0acce898b14c]
class OwnerTopicDto--><rect fill="#FEFECE" filter="url(#f7ickve89qc9f)" height="60.8047" id="OwnerTopicDto" style="stroke: #A80036; stroke-width: 1.5;" width="401" x="1392" y="278.4531"/><ellipse cx="1540.75" cy="294.4531" fill="#ADD1B2" rx="11" ry="11" style="stroke: #A80036; stroke-width: 1.0;"/><path d="M1543.0938,290.125 C1542.1563,289.6875 1541.5625,289.5469 1540.6875,289.5469 C1538.0625,289.5469 1536.0625,291.625 1536.0625,294.3438 L1536.0625,295.4688 C1536.0625,298.0469 1538.1719,299.9375 1541.0625,299.9375 C1542.2813,299.9375 1543.4375,299.6406 1544.1875,299.0938 C1544.7656,298.6875 1545.0938,298.2344 1545.0938,297.8438 C1545.0938,297.3906 1544.7031,297 1544.2344,297 C1544.0156,297 1543.8125,297.0781 1543.625,297.2656 C1543.1719,297.75 1543.1719,297.75 1542.9844,297.8438 C1542.5625,298.1094 1541.875,298.2344 1541.1094,298.2344 C1539.0625,298.2344 1537.7656,297.1406 1537.7656,295.4375 L1537.7656,294.3438 C1537.7656,292.5625 1539.0156,291.25 1540.75,291.25 C1541.3281,291.25 1541.9375,291.4063 1542.4063,291.6563 C1542.8906,291.9375 1543.0625,292.1563 1543.1563,292.5625 C1543.2188,292.9688 1543.25,293.0938 1543.3906,293.2188 C1543.5313,293.3594 1543.7656,293.4688 1543.9844,293.4688 C1544.25,293.4688 1544.5156,293.3281 1544.6875,293.1094 C1544.7969,292.9531 1544.8281,292.7656 1544.8281,292.3438 L1544.8281,290.9219 C1544.8281,290.4844 1544.8125,290.3594 1544.7188,290.2031 C1544.5625,289.9375 1544.2813,289.7969 1543.9844,289.7969 C1543.6875,289.7969 1543.4844,289.8906 1543.2656,290.2031 L1543.0938,290.125 Z "/><text fill="#000000" font-family="sans-serif" font-size="12" lengthAdjust="spacingAndGlyphs" textLength="95" x="1561.25" y="298.6074">OwnerTopicDto</text><line style="stroke: #A80036; stroke-width: 1.5;" x1="1393" x2="1792" y1="310.4531" y2="310.4531"/><line style="stroke: #A80036; stroke-width: 1.5;" x1="1393" x2="1792" y1="318.4531" y2="318.4531"/><ellipse cx="1403" cy="329.4531" fill="#84BE84" rx="3" ry="3" style="stroke: #038048; stroke-width: 1.0;"/><text fill="#000000" font-family="sans-serif" font-size="11" lengthAdjust="spacingAndGlyphs" textLength="375" x="1412" y="332.6636">OwnerTopicDto(uuid : String, user : UserDisplayDto, title : String)</text><!--MD5=[ad6791692d82373b5f5290be8be7f4ef]
class StatusDto--><rect fill="#FEFECE" filter="url(#f7ickve89qc9f)" height="99.2188" id="StatusDto" style="stroke: #A80036; stroke-width: 1.5;" width="207" x="687" y="259.4531"/><ellipse cx="755.25" cy="275.4531" fill="#ADD1B2" rx="11" ry="11" style="stroke: #A80036; stroke-width: 1.0;"/><path d="M757.5938,271.125 C756.6563,270.6875 756.0625,270.5469 755.1875,270.5469 C752.5625,270.5469 750.5625,272.625 750.5625,275.3438 L750.5625,276.4688 C750.5625,279.0469 752.6719,280.9375 755.5625,280.9375 C756.7813,280.9375 757.9375,280.6406 758.6875,280.0938 C759.2656,279.6875 759.5938,279.2344 759.5938,278.8438 C759.5938,278.3906 759.2031,278 758.7344,278 C758.5156,278 758.3125,278.0781 758.125,278.2656 C757.6719,278.75 757.6719,278.75 757.4844,278.8438 C757.0625,279.1094 756.375,279.2344 755.6094,279.2344 C753.5625,279.2344 752.2656,278.1406 752.2656,276.4375 L752.2656,275.3438 C752.2656,273.5625 753.5156,272.25 755.25,272.25 C755.8281,272.25 756.4375,272.4063 756.9063,272.6563 C757.3906,272.9375 757.5625,273.1563 757.6563,273.5625 C757.7188,273.9688 757.75,274.0938 757.8906,274.2188 C758.0313,274.3594 758.2656,274.4688 758.4844,274.4688 C758.75,274.4688 759.0156,274.3281 759.1875,274.1094 C759.2969,273.9531 759.3281,273.7656 759.3281,273.3438 L759.3281,271.9219 C759.3281,271.4844 759.3125,271.3594 759.2188,271.2031 C759.0625,270.9375 758.7813,270.7969 758.4844,270.7969 C758.1875,270.7969 757.9844,270.8906 757.7656,271.2031 L757.5938,271.125 Z "/><text fill="#000000" font-family="sans-serif" font-size="12" lengthAdjust="spacingAndGlyphs" textLength="62" x="775.75" y="279.6074">StatusDto</text><line style="stroke: #A80036; stroke-width: 1.5;" x1="688" x2="893" y1="291.4531" y2="291.4531"/><rect fill="none" height="6" style="stroke: #C82930; stroke-width: 1.0;" width="6" x="695" y="299.4531"/><text fill="#000000" font-family="sans-serif" font-size="11" lengthAdjust="spacingAndGlyphs" textLength="125" x="707" y="305.6636">status : StatusEnumw</text><line style="stroke: #A80036; stroke-width: 1.5;" x1="688" x2="893" y1="312.2578" y2="312.2578"/><ellipse cx="698" cy="323.2578" fill="#84BE84" rx="3" ry="3" style="stroke: #038048; stroke-width: 1.0;"/><text fill="#000000" font-family="sans-serif" font-size="11" lengthAdjust="spacingAndGlyphs" textLength="181" x="707" y="326.4683">StatusDto(status : StatusEnum)</text><ellipse cx="698" cy="336.0625" fill="#84BE84" rx="3" ry="3" style="stroke: #038048; stroke-width: 1.0;"/><text fill="#000000" font-family="sans-serif" font-size="11" lengthAdjust="spacingAndGlyphs" textLength="144" x="707" y="339.2729">getStatus() : StatusEnum</text><ellipse cx="698" cy="348.8672" fill="#84BE84" rx="3" ry="3" style="stroke: #038048; stroke-width: 1.0;"/><text fill="#000000" font-family="sans-serif" font-size="11" lengthAdjust="spacingAndGlyphs" textLength="180" x="707" y="352.0776">setStatus(status : StatusEnum)</text><!--MD5=[a085bb25becdd8f75139c9e45aff5a18]
class SubscriberTaskDto--><rect fill="#FEFECE" filter="url(#f7ickve89qc9f)" height="99.2188" id="SubscriberTaskDto" style="stroke: #A80036; stroke-width: 1.5;" width="579" x="6" y="259.4531"/><ellipse cx="232.75" cy="275.4531" fill="#ADD1B2" rx="11" ry="11" style="stroke: #A80036; stroke-width: 1.0;"/><path d="M235.0938,271.125 C234.1563,270.6875 233.5625,270.5469 232.6875,270.5469 C230.0625,270.5469 228.0625,272.625 228.0625,275.3438 L228.0625,276.4688 C228.0625,279.0469 230.1719,280.9375 233.0625,280.9375 C234.2813,280.9375 235.4375,280.6406 236.1875,280.0938 C236.7656,279.6875 237.0938,279.2344 237.0938,278.8438 C237.0938,278.3906 236.7031,278 236.2344,278 C236.0156,278 235.8125,278.0781 235.625,278.2656 C235.1719,278.75 235.1719,278.75 234.9844,278.8438 C234.5625,279.1094 233.875,279.2344 233.1094,279.2344 C231.0625,279.2344 229.7656,278.1406 229.7656,276.4375 L229.7656,275.3438 C229.7656,273.5625 231.0156,272.25 232.75,272.25 C233.3281,272.25 233.9375,272.4063 234.4063,272.6563 C234.8906,272.9375 235.0625,273.1563 235.1563,273.5625 C235.2188,273.9688 235.25,274.0938 235.3906,274.2188 C235.5313,274.3594 235.7656,274.4688 235.9844,274.4688 C236.25,274.4688 236.5156,274.3281 236.6875,274.1094 C236.7969,273.9531 236.8281,273.7656 236.8281,273.3438 L236.8281,271.9219 C236.8281,271.4844 236.8125,271.3594 236.7188,271.2031 C236.5625,270.9375 236.2813,270.7969 235.9844,270.7969 C235.6875,270.7969 235.4844,270.8906 235.2656,271.2031 L235.0938,271.125 Z "/><text fill="#000000" font-family="sans-serif" font-size="12" lengthAdjust="spacingAndGlyphs" textLength="117" x="253.25" y="279.6074">SubscriberTaskDto</text><line style="stroke: #A80036; stroke-width: 1.5;" x1="7" x2="584" y1="291.4531" y2="291.4531"/><rect fill="none" height="6" style="stroke: #C82930; stroke-width: 1.0;" width="6" x="14" y="299.4531"/><text fill="#000000" font-family="sans-serif" font-size="11" lengthAdjust="spacingAndGlyphs" textLength="109" x="26" y="305.6636">status : StatusDTO</text><line style="stroke: #A80036; stroke-width: 1.5;" x1="7" x2="584" y1="312.2578" y2="312.2578"/><ellipse cx="17" cy="323.2578" fill="#84BE84" rx="3" ry="3" style="stroke: #038048; stroke-width: 1.0;"/><text fill="#000000" font-family="sans-serif" font-size="11" lengthAdjust="spacingAndGlyphs" textLength="553" x="26" y="326.4683">SubscriberTaskDto(taskId : Long, title : String, topicDto : SubscriberTopicDto, status : StatusDto)</text><ellipse cx="17" cy="336.0625" fill="#84BE84" rx="3" ry="3" style="stroke: #038048; stroke-width: 1.0;"/><text fill="#000000" font-family="sans-serif" font-size="11" lengthAdjust="spacingAndGlyphs" textLength="132" x="26" y="339.2729">getStatus() : StatusDto</text><ellipse cx="17" cy="348.8672" fill="#84BE84" rx="3" ry="3" style="stroke: #038048; stroke-width: 1.0;"/><text fill="#000000" font-family="sans-serif" font-size="11" lengthAdjust="spacingAndGlyphs" textLength="164" x="26" y="352.0776">setStatus(status: StatusDto)</text><!--MD5=[f6b311a4d2152fd1e3b80fc887b30137]
class SubscriberTopicDto--><rect fill="#FEFECE" filter="url(#f7ickve89qc9f)" height="150.4375" id="SubscriberTopicDto" style="stroke: #A80036; stroke-width: 1.5;" width="441" x="1372" y="35.4531"/><ellipse cx="1527.75" cy="51.4531" fill="#ADD1B2" rx="11" ry="11" style="stroke: #A80036; stroke-width: 1.0;"/><path d="M1530.0938,47.125 C1529.1563,46.6875 1528.5625,46.5469 1527.6875,46.5469 C1525.0625,46.5469 1523.0625,48.625 1523.0625,51.3438 L1523.0625,52.4688 C1523.0625,55.0469 1525.1719,56.9375 1528.0625,56.9375 C1529.2813,56.9375 1530.4375,56.6406 1531.1875,56.0938 C1531.7656,55.6875 1532.0938,55.2344 1532.0938,54.8438 C1532.0938,54.3906 1531.7031,54 1531.2344,54 C1531.0156,54 1530.8125,54.0781 1530.625,54.2656 C1530.1719,54.75 1530.1719,54.75 1529.9844,54.8438 C1529.5625,55.1094 1528.875,55.2344 1528.1094,55.2344 C1526.0625,55.2344 1524.7656,54.1406 1524.7656,52.4375 L1524.7656,51.3438 C1524.7656,49.5625 1526.0156,48.25 1527.75,48.25 C1528.3281,48.25 1528.9375,48.4063 1529.4063,48.6563 C1529.8906,48.9375 1530.0625,49.1563 1530.1563,49.5625 C1530.2188,49.9688 1530.25,50.0938 1530.3906,50.2188 C1530.5313,50.3594 1530.7656,50.4688 1530.9844,50.4688 C1531.25,50.4688 1531.5156,50.3281 1531.6875,50.1094 C1531.7969,49.9531 1531.8281,49.7656 1531.8281,49.3438 L1531.8281,47.9219 C1531.8281,47.4844 1531.8125,47.3594 1531.7188,47.2031 C1531.5625,46.9375 1531.2813,46.7969 1530.9844,46.7969 C1530.6875,46.7969 1530.4844,46.8906 1530.2656,47.2031 L1530.0938,47.125 Z "/><text fill="#000000" font-family="sans-serif" font-size="12" lengthAdjust="spacingAndGlyphs" textLength="121" x="1548.25" y="55.6074">SubscriberTopicDto</text><line style="stroke: #A80036; stroke-width: 1.5;" x1="1373" x2="1812" y1="67.4531" y2="67.4531"/><rect fill="none" height="6" style="stroke: #C82930; stroke-width: 1.0;" width="6" x="1380" y="75.4531"/><text fill="#000000" font-family="sans-serif" font-size="11" lengthAdjust="spacingAndGlyphs" textLength="69" x="1392" y="81.6636">uuid : String</text><rect fill="none" height="6" style="stroke: #C82930; stroke-width: 1.0;" width="6" x="1380" y="88.2578"/><text fill="#000000" font-family="sans-serif" font-size="11" lengthAdjust="spacingAndGlyphs" textLength="144" x="1392" y="94.4683">creator : UserDisplayDto</text><rect fill="none" height="6" style="stroke: #C82930; stroke-width: 1.0;" width="6" x="1380" y="101.0625"/><text fill="#000000" font-family="sans-serif" font-size="11" lengthAdjust="spacingAndGlyphs" textLength="67" x="1392" y="107.2729">title : String</text><line style="stroke: #A80036; stroke-width: 1.5;" x1="1373" x2="1812" y1="113.8672" y2="113.8672"/><ellipse cx="1383" cy="124.8672" fill="#84BE84" rx="3" ry="3" style="stroke: #038048; stroke-width: 1.0;"/><text fill="#000000" font-family="sans-serif" font-size="11" lengthAdjust="spacingAndGlyphs" textLength="415" x="1392" y="128.0776">SubscriberTopicDto(uuid : String, creator : UserDisplayDto, title : String)</text><ellipse cx="1383" cy="137.6719" fill="#84BE84" rx="3" ry="3" style="stroke: #038048; stroke-width: 1.0;"/><text fill="#000000" font-family="sans-serif" font-size="11" lengthAdjust="spacingAndGlyphs" textLength="97" x="1392" y="140.8823">getUuid() : String</text><ellipse cx="1383" cy="150.4766" fill="#84BE84" rx="3" ry="3" style="stroke: #038048; stroke-width: 1.0;"/><text fill="#000000" font-family="sans-serif" font-size="11" lengthAdjust="spacingAndGlyphs" textLength="173" x="1392" y="153.687">getCreator() : UserDisplayDto</text><ellipse cx="1383" cy="163.2813" fill="#84BE84" rx="3" ry="3" style="stroke: #038048; stroke-width: 1.0;"/><text fill="#000000" font-family="sans-serif" font-size="11" lengthAdjust="spacingAndGlyphs" textLength="97" x="1392" y="166.4917">getTitle() : String</text><ellipse cx="1383" cy="176.0859" fill="#84BE84" rx="3" ry="3" style="stroke: #038048; stroke-width: 1.0;"/><text fill="#000000" font-family="sans-serif" font-size="11" lengthAdjust="spacingAndGlyphs" textLength="119" x="1392" y="179.2964">setTitle(title : String)</text><!--MD5=[c653e6c39a5d22730e331bd3cc521e80]
class TaskDto--><rect fill="#FEFECE" filter="url(#f7ickve89qc9f)" height="163.2422" id="TaskDto" style="stroke: #A80036; stroke-width: 1.5;" width="381" x="898" y="28.9531"/><ellipse cx="1058.75" cy="44.9531" fill="#ADD1B2" rx="11" ry="11" style="stroke: #A80036; stroke-width: 1.0;"/><path d="M1061.0938,40.625 C1060.1563,40.1875 1059.5625,40.0469 1058.6875,40.0469 C1056.0625,40.0469 1054.0625,42.125 1054.0625,44.8438 L1054.0625,45.9688 C1054.0625,48.5469 1056.1719,50.4375 1059.0625,50.4375 C1060.2813,50.4375 1061.4375,50.1406 1062.1875,49.5938 C1062.7656,49.1875 1063.0938,48.7344 1063.0938,48.3438 C1063.0938,47.8906 1062.7031,47.5 1062.2344,47.5 C1062.0156,47.5 1061.8125,47.5781 1061.625,47.7656 C1061.1719,48.25 1061.1719,48.25 1060.9844,48.3438 C1060.5625,48.6094 1059.875,48.7344 1059.1094,48.7344 C1057.0625,48.7344 1055.7656,47.6406 1055.7656,45.9375 L1055.7656,44.8438 C1055.7656,43.0625 1057.0156,41.75 1058.75,41.75 C1059.3281,41.75 1059.9375,41.9063 1060.4063,42.1563 C1060.8906,42.4375 1061.0625,42.6563 1061.1563,43.0625 C1061.2188,43.4688 1061.25,43.5938 1061.3906,43.7188 C1061.5313,43.8594 1061.7656,43.9688 1061.9844,43.9688 C1062.25,43.9688 1062.5156,43.8281 1062.6875,43.6094 C1062.7969,43.4531 1062.8281,43.2656 1062.8281,42.8438 L1062.8281,41.4219 C1062.8281,40.9844 1062.8125,40.8594 1062.7188,40.7031 C1062.5625,40.4375 1062.2813,40.2969 1061.9844,40.2969 C1061.6875,40.2969 1061.4844,40.3906 1061.2656,40.7031 L1061.0938,40.625 Z "/><text fill="#000000" font-family="sans-serif" font-size="12" lengthAdjust="spacingAndGlyphs" textLength="51" x="1079.25" y="49.1074">TaskDto</text><line style="stroke: #A80036; stroke-width: 1.5;" x1="899" x2="1278" y1="60.9531" y2="60.9531"/><polygon fill="none" points="909,67.9531,905,73.9531,913,73.9531" style="stroke: #1963A0; stroke-width: 1.0;"/><text fill="#000000" font-family="sans-serif" font-size="11" lengthAdjust="spacingAndGlyphs" textLength="48" x="918" y="75.1636">id : Long</text><polygon fill="none" points="909,80.7578,905,86.7578,913,86.7578" style="stroke: #1963A0; stroke-width: 1.0;"/><text fill="#000000" font-family="sans-serif" font-size="11" lengthAdjust="spacingAndGlyphs" textLength="67" x="918" y="87.9683">title : String</text><polygon fill="none" points="909,93.5625,905,99.5625,913,99.5625" style="stroke: #1963A0; stroke-width: 1.0;"/><text fill="#000000" font-family="sans-serif" font-size="11" lengthAdjust="spacingAndGlyphs" textLength="151" x="918" y="100.7729">topic : SubscriberTopicDto</text><line style="stroke: #A80036; stroke-width: 1.5;" x1="899" x2="1278" y1="107.3672" y2="107.3672"/><ellipse cx="909" cy="118.3672" fill="#84BE84" rx="3" ry="3" style="stroke: #038048; stroke-width: 1.0;"/><text fill="#000000" font-family="sans-serif" font-size="11" lengthAdjust="spacingAndGlyphs" textLength="355" x="918" y="121.5776">TaskDto(id : Long, title : String, topicDto : SubscriberTopicDto)</text><ellipse cx="909" cy="131.1719" fill="#84BE84" rx="3" ry="3" style="stroke: #038048; stroke-width: 1.0;"/><text fill="#000000" font-family="sans-serif" font-size="11" lengthAdjust="spacingAndGlyphs" textLength="75" x="918" y="134.3823">getId() : Long</text><ellipse cx="909" cy="143.9766" fill="#84BE84" rx="3" ry="3" style="stroke: #038048; stroke-width: 1.0;"/><text fill="#000000" font-family="sans-serif" font-size="11" lengthAdjust="spacingAndGlyphs" textLength="97" x="918" y="147.187">getTitle() : String</text><ellipse cx="909" cy="156.7813" fill="#84BE84" rx="3" ry="3" style="stroke: #038048; stroke-width: 1.0;"/><text fill="#000000" font-family="sans-serif" font-size="11" lengthAdjust="spacingAndGlyphs" textLength="119" x="918" y="159.9917">setTitle(title : String)</text><ellipse cx="909" cy="169.5859" fill="#84BE84" rx="3" ry="3" style="stroke: #038048; stroke-width: 1.0;"/><text fill="#000000" font-family="sans-serif" font-size="11" lengthAdjust="spacingAndGlyphs" textLength="181" x="918" y="172.7964">getTopic() : SubscriberTopicDto</text><ellipse cx="909" cy="182.3906" fill="#84BE84" rx="3" ry="3" style="stroke: #038048; stroke-width: 1.0;"/><text fill="#000000" font-family="sans-serif" font-size="11" lengthAdjust="spacingAndGlyphs" textLength="208" x="918" y="185.6011">setTopic(topic : SubscriberTopicDto)</text><!--MD5=[14e0771c940cce582e21a0a671a90b17]
class UserDisplayDto--><rect fill="#FEFECE" filter="url(#f7ickve89qc9f)" height="124.8281" id="UserDisplayDto" style="stroke: #A80036; stroke-width: 1.5;" width="197" x="1922" y="47.9531"/><ellipse cx="1968.25" cy="63.9531" fill="#ADD1B2" rx="11" ry="11" style="stroke: #A80036; stroke-width: 1.0;"/><path d="M1970.5938,59.625 C1969.6563,59.1875 1969.0625,59.0469 1968.1875,59.0469 C1965.5625,59.0469 1963.5625,61.125 1963.5625,63.8438 L1963.5625,64.9688 C1963.5625,67.5469 1965.6719,69.4375 1968.5625,69.4375 C1969.7813,69.4375 1970.9375,69.1406 1971.6875,68.5938 C1972.2656,68.1875 1972.5938,67.7344 1972.5938,67.3438 C1972.5938,66.8906 1972.2031,66.5 1971.7344,66.5 C1971.5156,66.5 1971.3125,66.5781 1971.125,66.7656 C1970.6719,67.25 1970.6719,67.25 1970.4844,67.3438 C1970.0625,67.6094 1969.375,67.7344 1968.6094,67.7344 C1966.5625,67.7344 1965.2656,66.6406 1965.2656,64.9375 L1965.2656,63.8438 C1965.2656,62.0625 1966.5156,60.75 1968.25,60.75 C1968.8281,60.75 1969.4375,60.9063 1969.9063,61.1563 C1970.3906,61.4375 1970.5625,61.6563 1970.6563,62.0625 C1970.7188,62.4688 1970.75,62.5938 1970.8906,62.7188 C1971.0313,62.8594 1971.2656,62.9688 1971.4844,62.9688 C1971.75,62.9688 1972.0156,62.8281 1972.1875,62.6094 C1972.2969,62.4531 1972.3281,62.2656 1972.3281,61.8438 L1972.3281,60.4219 C1972.3281,59.9844 1972.3125,59.8594 1972.2188,59.7031 C1972.0625,59.4375 1971.7813,59.2969 1971.4844,59.2969 C1971.1875,59.2969 1970.9844,59.3906 1970.7656,59.7031 L1970.5938,59.625 Z "/><text fill="#000000" font-family="sans-serif" font-size="12" lengthAdjust="spacingAndGlyphs" textLength="96" x="1988.75" y="68.1074">UserDisplayDto</text><line style="stroke: #A80036; stroke-width: 1.5;" x1="1923" x2="2118" y1="79.9531" y2="79.9531"/><rect fill="none" height="6" style="stroke: #C82930; stroke-width: 1.0;" width="6" x="1930" y="87.9531"/><text fill="#000000" font-family="sans-serif" font-size="11" lengthAdjust="spacingAndGlyphs" textLength="72" x="1942" y="94.1636">login : String</text><line style="stroke: #A80036; stroke-width: 1.5;" x1="1923" x2="2118" y1="100.7578" y2="100.7578"/><ellipse cx="1933" cy="111.7578" fill="#84BE84" rx="3" ry="3" style="stroke: #038048; stroke-width: 1.0;"/><text fill="#000000" font-family="sans-serif" font-size="11" lengthAdjust="spacingAndGlyphs" textLength="171" x="1942" y="114.9683">UserDisplayDto(login : String)</text><ellipse cx="1933" cy="124.5625" fill="#84BE84" rx="3" ry="3" style="stroke: #038048; stroke-width: 1.0;"/><text fill="#000000" font-family="sans-serif" font-size="11" lengthAdjust="spacingAndGlyphs" textLength="99" x="1942" y="127.7729">UserDisplayDto()</text><ellipse cx="1933" cy="137.3672" fill="#84BE84" rx="3" ry="3" style="stroke: #038048; stroke-width: 1.0;"/><text fill="#000000" font-family="sans-serif" font-size="11" lengthAdjust="spacingAndGlyphs" textLength="149" x="1942" y="140.5776">getDisplayName() : String</text><ellipse cx="1933" cy="150.1719" fill="#84BE84" rx="3" ry="3" style="stroke: #038048; stroke-width: 1.0;"/><text fill="#000000" font-family="sans-serif" font-size="11" lengthAdjust="spacingAndGlyphs" textLength="102" x="1942" y="153.3823">getLogin() : String</text><ellipse cx="1933" cy="162.9766" fill="#84BE84" rx="3" ry="3" style="stroke: #038048; stroke-width: 1.0;"/><text fill="#000000" font-family="sans-serif" font-size="11" lengthAdjust="spacingAndGlyphs" textLength="129" x="1942" y="166.187">setLogin(login : String)</text><!--MD5=[4065e8582f3c1d242904a96d52d85daa]
class UserManagementDto--><rect fill="#FEFECE" filter="url(#f7ickve89qc9f)" height="112.0234" id="UserManagementDto" style="stroke: #A80036; stroke-width: 1.5;" width="333" x="1854" y="252.9531"/><ellipse cx="1950.75" cy="268.9531" fill="#ADD1B2" rx="11" ry="11" style="stroke: #A80036; stroke-width: 1.0;"/><path d="M1953.0938,264.625 C1952.1563,264.1875 1951.5625,264.0469 1950.6875,264.0469 C1948.0625,264.0469 1946.0625,266.125 1946.0625,268.8438 L1946.0625,269.9688 C1946.0625,272.5469 1948.1719,274.4375 1951.0625,274.4375 C1952.2813,274.4375 1953.4375,274.1406 1954.1875,273.5938 C1954.7656,273.1875 1955.0938,272.7344 1955.0938,272.3438 C1955.0938,271.8906 1954.7031,271.5 1954.2344,271.5 C1954.0156,271.5 1953.8125,271.5781 1953.625,271.7656 C1953.1719,272.25 1953.1719,272.25 1952.9844,272.3438 C1952.5625,272.6094 1951.875,272.7344 1951.1094,272.7344 C1949.0625,272.7344 1947.7656,271.6406 1947.7656,269.9375 L1947.7656,268.8438 C1947.7656,267.0625 1949.0156,265.75 1950.75,265.75 C1951.3281,265.75 1951.9375,265.9063 1952.4063,266.1563 C1952.8906,266.4375 1953.0625,266.6563 1953.1563,267.0625 C1953.2188,267.4688 1953.25,267.5938 1953.3906,267.7188 C1953.5313,267.8594 1953.7656,267.9688 1953.9844,267.9688 C1954.25,267.9688 1954.5156,267.8281 1954.6875,267.6094 C1954.7969,267.4531 1954.8281,267.2656 1954.8281,266.8438 L1954.8281,265.4219 C1954.8281,264.9844 1954.8125,264.8594 1954.7188,264.7031 C1954.5625,264.4375 1954.2813,264.2969 1953.9844,264.2969 C1953.6875,264.2969 1953.4844,264.3906 1953.2656,264.7031 L1953.0938,264.625 Z "/><text fill="#000000" font-family="sans-serif" font-size="12" lengthAdjust="spacingAndGlyphs" textLength="131" x="1971.25" y="273.1074">UserManagementDto</text><line style="stroke: #A80036; stroke-width: 1.5;" x1="1855" x2="2186" y1="284.9531" y2="284.9531"/><rect fill="none" height="6" style="stroke: #C82930; stroke-width: 1.0;" width="6" x="1862" y="292.9531"/><text fill="#000000" font-family="sans-serif" font-size="11" lengthAdjust="spacingAndGlyphs" textLength="101" x="1874" y="299.1636">password : String</text><line style="stroke: #A80036; stroke-width: 1.5;" x1="1855" x2="2186" y1="305.7578" y2="305.7578"/><ellipse cx="1865" cy="316.7578" fill="#84BE84" rx="3" ry="3" style="stroke: #038048; stroke-width: 1.0;"/><text fill="#000000" font-family="sans-serif" font-size="11" lengthAdjust="spacingAndGlyphs" textLength="307" x="1874" y="319.9683">UserManagementDto(login : String, password :String)</text><ellipse cx="1865" cy="329.5625" fill="#84BE84" rx="3" ry="3" style="stroke: #038048; stroke-width: 1.0;"/><text fill="#000000" font-family="sans-serif" font-size="11" lengthAdjust="spacingAndGlyphs" textLength="131" x="1874" y="332.7729">UserManagementDto()</text><ellipse cx="1865" cy="342.3672" fill="#84BE84" rx="3" ry="3" style="stroke: #038048; stroke-width: 1.0;"/><text fill="#000000" font-family="sans-serif" font-size="11" lengthAdjust="spacingAndGlyphs" textLength="128" x="1874" y="345.5776">getPassword() : String</text><ellipse cx="1865" cy="355.1719" fill="#84BE84" rx="3" ry="3" style="stroke: #038048; stroke-width: 1.0;"/><text fill="#000000" font-family="sans-serif" font-size="11" lengthAdjust="spacingAndGlyphs" textLength="184" x="1874" y="358.3823">setPassword(password : String)</text><!--MD5=[f21df391b4fba460dbc4474df85482e9]
reverse link TaskDto to OwnerTaskDto--><path d="M1114.01,211.7141 C1120.22,236.1111 1126.39,260.3431 1130.98,278.3889 " fill="none" id="TaskDto&lt;-OwnerTaskDto" style="stroke: #A80036; stroke-width: 1.0;"/><polygon fill="none" points="1107.2,213.3361,1109.05,192.2281,1120.77,209.8841,1107.2,213.3361" style="stroke: #A80036; stroke-width: 1.0;"/><!--MD5=[32b3300d85ad57e8b2bce3d29c572401]
reverse link TaskDto to SubscriberTaskDto--><path d="M878.058,163.5991 C758.15,193.3121 608.883,230.2991 491.464,259.3941 " fill="none" id="TaskDto&lt;-SubscriberTaskDto" style="stroke: #A80036; stroke-width: 1.0;"/><polygon fill="none" points="876.703,156.7231,897.8,158.7071,880.071,170.3121,876.703,156.7231" style="stroke: #A80036; stroke-width: 1.0;"/><!--MD5=[abc9a030c5c769e8fc90d88013ede528]
reverse link SubscriberTopicDto to OwnerTopicDto--><path d="M1592.5,205.8051 C1592.5,232.0461 1592.5,258.6581 1592.5,278.139 " fill="none" id="SubscriberTopicDto&lt;-OwnerTopicDto" style="stroke: #A80036; stroke-width: 1.0;"/><polygon fill="none" points="1585.5,205.4611,1592.5,185.4611,1599.5,205.4611,1585.5,205.4611" style="stroke: #A80036; stroke-width: 1.0;"/><!--MD5=[447c95d45855ad04d964004c31378abf]
reverse link UserDisplayDto to UserManagementDto--><path d="M2020.5,193.1571 C2020.5,213.2731 2020.5,234.3431 2020.5,252.8601 " fill="none" id="UserDisplayDto&lt;-UserManagementDto" style="stroke: #A80036; stroke-width: 1.0;"/><polygon fill="none" points="2013.5,193.0881,2020.5,173.0881,2027.5,193.0881,2013.5,193.0881" style="stroke: #A80036; stroke-width: 1.0;"/><!--MD5=[cb2baecc2bfadf462dc84ef51d38102c]
link SubscriberTaskDto to StatusDto--><path d="M585.234,308.9531 C621.47,308.9531 656.461,308.9531 686.976,308.9531 " fill="none" id="SubscriberTaskDto-StatusDto" style="stroke: #A80036; stroke-width: 1.0;"/><rect fill="none" height="6" style="stroke: #C82930; stroke-width: 1.0;" width="6" x="605.5" y="295.0195"/><text fill="#000000" font-family="sans-serif" font-size="13" lengthAdjust="spacingAndGlyphs" textLength="40" x="615.5" y="302.02">status</text><polygon fill="#000000" points="658.5,296.0195,664.5,299.0195,658.5,302.0195,658.5,296.0195" style="stroke: #000000; stroke-width: 1.0;"/><!--MD5=[a002d1a5227afa9b13ff399a684bc5a8]
link SubscriberTopicDto to UserDisplayDto--><path d="M1813.08,110.4531 C1851.24,110.4531 1889.12,110.4531 1921.87,110.4531 " fill="none" id="SubscriberTopicDto-UserDisplayDto" style="stroke: #A80036; stroke-width: 1.0;"/><rect fill="none" height="6" style="stroke: #C82930; stroke-width: 1.0;" width="6" x="1833.5" y="96.5195"/><text fill="#000000" font-family="sans-serif" font-size="13" lengthAdjust="spacingAndGlyphs" textLength="47" x="1843.5" y="103.52">creator</text><polygon fill="#000000" points="1893.5,97.5195,1899.5,100.5195,1893.5,103.5195,1893.5,97.5195" style="stroke: #000000; stroke-width: 1.0;"/><!--MD5=[4ef02cacf67f83c3e94bfc6390c86115]
link TaskDto to SubscriberTopicDto--><path d="M1279.04,110.4531 C1309.29,110.4531 1340.79,110.4531 1371.66,110.4531 " fill="none" id="TaskDto-SubscriberTopicDto" style="stroke: #A80036; stroke-width: 1.0;"/><rect fill="none" height="6" style="stroke: #C82930; stroke-width: 1.0;" width="6" x="1299.5" y="96.5195"/><text fill="#000000" font-family="sans-serif" font-size="13" lengthAdjust="spacingAndGlyphs" textLength="31" x="1309.5" y="103.52">topic</text><polygon fill="#000000" points="1343.5,97.5195,1349.5,100.5195,1343.5,103.5195,1343.5,97.5195" style="stroke: #000000; stroke-width: 1.0;"/><!--MD5=[6f3e0178897303529f5048695f972351]
@startuml
title Klassendiagramm der Transferobjekte

class OwnerTaskDto {
  +OwnerTaskDto(id : Long, title : String, topicDto : SubscriberTopicDto)
}

class OwnerTopicDto {
  +OwnerTopicDto(uuid : String, user : UserDisplayDto, title : String)
}

class StatusDto {
  -status : StatusEnumw
  +StatusDto(status : StatusEnum)
  +getStatus() : StatusEnum
  +setStatus(status : StatusEnum)
}

class SubscriberTaskDto {
  -status : StatusDTO
  +SubscriberTaskDto(taskId : Long, title : String, topicDto : SubscriberTopicDto, status : StatusDto)
  +getStatus() : StatusDto
  +setStatus(status: StatusDto)
}

class SubscriberTopicDto {
  -uuid : String
  -creator : UserDisplayDto
  -title : String
  +SubscriberTopicDto(uuid : String, creator : UserDisplayDto, title : String)
  +getUuid() : String
  +getCreator() : UserDisplayDto
  +getTitle() : String
  +setTitle(title : String)
}

class TaskDto {
  ~id : Long
  ~title : String
  ~topic : SubscriberTopicDto
  +TaskDto(id : Long, title : String, topicDto : SubscriberTopicDto)
  +getId() : Long
  +getTitle() : String
  +setTitle(title : String)
  +getTopic() : SubscriberTopicDto
  +setTopic(topic : SubscriberTopicDto)
}

class UserDisplayDto {
  -login : String
  +UserDisplayDto(login : String)
  +UserDisplayDto()
  +getDisplayName() : String
  +getLogin() : String
  +setLogin(login : String)
}

class UserManagementDto {
  -password : String
  +UserManagementDto(login : String, password :String)
  +UserManagementDto()
  +getPassword() : String
  +setPassword(password : String)
}

TaskDto <|- - OwnerTaskDto
TaskDto <|- - SubscriberTaskDto
SubscriberTopicDto <|- - OwnerTopicDto
UserDisplayDto <|- - UserManagementDto

SubscriberTaskDto - StatusDto : -status >
SubscriberTopicDto - UserDisplayDto : -creator >
TaskDto - SubscriberTopicDto : -topic >
@enduml

PlantUML version 1.2020.09beta3(Unknown compile time)
(GPL source distribution)
Java Runtime: Java(TM) SE Runtime Environment
JVM: Java HotSpot(TM) 64-Bit Server VM
Java Version: 14.0.1+7
Operating System: Linux
Default Encoding: UTF-8
Language: en
Country: US
--></g></svg>